<svg width="140" height="140" fill="none" xmlns="http://www.w3.org/2000/svg"><g clip-path="url(#a)" fill="#fff" fill-opacity=".4"><path d="M126.909 9H21.119C11.677 9 4 16.676 4 26.12v72.303c0 9.443 7.676 17.12 17.12 17.12h105.76c9.444 0 17.12-7.677 17.12-17.12V26.149C144.029 16.705 136.353 9 126.909 9Zm9.299 89.423c0 5.127-4.172 9.298-9.299 9.298H21.119c-5.126 0-9.298-4.171-9.298-9.298V26.149c0-5.128 4.172-9.299 9.299-9.299h105.76c5.127 0 9.299 4.171 9.299 9.299v72.274h.029Z"/><path d="m92.293 61.373 34.24-30.705a3.93 3.93 0 0 0 .289-5.533 3.93 3.93 0 0 0-5.533-.29l-47.217 42.38-9.211-8.227c-.03-.029-.058-.058-.058-.087a5.797 5.797 0 0 0-.638-.55L26.682 24.816a3.905 3.905 0 0 0-5.533.319 3.905 3.905 0 0 0 .318 5.533l34.646 30.966-34.5 32.299a3.926 3.926 0 0 0-.174 5.532 4 4 0 0 0 2.867 1.246c.956 0 1.912-.347 2.665-1.043l35.022-32.762 9.501 8.487a3.906 3.906 0 0 0 5.215-.028l9.761-8.749 34.819 33.081a3.89 3.89 0 0 0 2.694 1.072 3.904 3.904 0 0 0 2.839-1.217c1.478-1.564 1.42-4.055-.145-5.532L92.293 61.373Z"/></g><defs><clipPath id="a"><path fill="#fff" d="M0 0h140v140H0z"/></clipPath></defs></svg>